<?xml version="1.0" encoding="UTF-8"?>
<svg width="32" height="20" viewBox="0 0 750 471" fill="none" xmlns="http://www.w3.org/2000/svg">
  <path d="M434.8 235.5c0 99.4-80.6 180-180 180s-180-80.6-180-180 80.6-180 180-180 180 80.6 180 180" fill="#FF5F00"/>
  <path d="M254.8 55.5c-44.9 0-86.2 15.7-118.6 42C167.6 44.1 228 11.5 295.6 11.5c99.4 0 180 80.6 180 180s-80.6 180-180 180c-67.6 0-128-32.6-159.4-85.9 32.4 26.3 73.7 42 118.6 42 99.4 0 180-80.6 180-180s-80.6-180-180-180" fill="#EB001B"/>
  <path d="M675.2 235.5c0 99.4-80.6 180-180 180s-180-80.6-180-180 80.6-180 180-180 180 80.6 180 180" fill="#F79E1B"/>
</svg>
