<?xml version="1.0" encoding="UTF-8"?>
<svg width="32" height="20" viewBox="0 0 750 471" fill="none" xmlns="http://www.w3.org/2000/svg">
  <path d="M278.2 334.2L311.9 137.9H366.3L332.6 334.2H278.2Z" fill="#00579F"/>
  <path d="M524.3 142.7C514.5 139.1 499.3 135 480.9 135C422.9 135 381.6 164.8 381.3 206.7C381 237.8 410.9 255.1 433.7 265.7C457.1 276.5 464.8 283.4 464.7 293.2C464.5 308.4 445.6 315.3 427.9 315.3C403.9 315.3 390.6 311.2 371.3 302.4L363.9 298.7L355.7 345.8C367.5 350.7 390.8 355 415 355.2C476.9 355.2 517.5 325.8 517.9 281.5C518.1 257.3 502.7 238.8 466.7 222.7C445 212.3 432.2 205.2 432.3 194.1C432.3 184.3 444.1 174 469.5 174C490.8 173.8 506.4 177.4 518.3 181.5L523.6 184.1L531.8 138.5L524.3 142.7Z" fill="#00579F"/>
  <path d="M661.6 137.9H620.2C607.6 137.9 598.3 141.3 592.8 154.9L513.7 334.2H573.3C573.3 334.2 583.1 307.3 585.1 302.2C591.9 302.2 645.4 302.3 654 302.3C655.6 308.8 660.7 334.2 660.7 334.2H714L661.6 137.9ZM601.5 262.8C605.9 251.6 624.5 203 624.5 203C624.1 203.5 629.2 190.1 632 182.3L635.8 201.4C635.8 201.4 647.8 254.9 650 262.8H601.5Z" fill="#00579F"/>
  <path d="M233.6 137.9L176.6 272.5L170.6 244.9C160.2 210.5 130.9 173.3 97.6 155L150.6 334H210.5L303.5 137.9H233.6Z" fill="#00579F"/>
  <path d="M131.7 137.9H40.2L39.5 141.7C108.3 158.8 152.5 198.4 170.6 244.9L146.1 154.8C143.1 142.5 138 138.3 131.7 137.9Z" fill="#FAA61A"/>
</svg>
